ffmpeg started on 2016-11-28 at 08:23:06
Report written to "Output/NVENCh264/results/ffmpeg/old_town_cross_2160p50llhp14000k.log"
Command line:
Tools/ffmpeg/ffmpeg -benchmark -y -i Input/y4m/old_town_cross_2160p50.y4m -c:v h264_nvenc -preset llhp -b:v 14000k -an Output/NVENCh264/encoded/old_town_cross_2160p50llhp14000k.mkv
ffmpeg version N-82227-gdb23fde Copyright (c) 2000-2016 the FFmpeg developers
  built with gcc 5.4.0 (Ubuntu 5.4.0-6ubuntu1~16.04.2) 20160609
  configuration: --prefix=/home/jaroslav/ffmpeg_build --pkg-config-flags=--static --extra-cflags=-I/home/jaroslav/ffmpeg_build/include --extra-ldflags=-L/home/jaroslav/ffmpeg_build/lib --bindir=/home/jaroslav/bin --enable-gpl --enable-libass --enable-libfdk-aac --enable-libfreetype --enable-libmp3lame --enable-libopus --enable-libtheora --enable-libvorbis --enable-libvpx --enable-libx264 --enable-libx265 --enable-nvenc --enable-libmfx --enable-libxvid --enable-libgsm --enable-libopencore-amrnb --enable-version3 --enable-nonfree
  libavutil      55. 35.100 / 55. 35.100
  libavcodec     57. 66.101 / 57. 66.101
  libavformat    57. 57.100 / 57. 57.100
  libavdevice    57.  2.100 / 57.  2.100
  libavfilter     6. 66.100 /  6. 66.100
  libswscale      4.  3.100 /  4.  3.100
  libswresample   2.  4.100 /  2.  4.100
  libpostproc    54.  2.100 / 54.  2.100
Input #0, yuv4mpegpipe, from 'Input/y4m/old_town_cross_2160p50.y4m':
  Duration: 00:00:10.00, start: 0.000000, bitrate: 4976642 kb/s
    Stream #0:0: Video: rawvideo (I420 / 0x30323449), yuv420p(progressive), 3840x2160, SAR 1:1 DAR 16:9, 50 fps, 50 tbr, 50 tbn, 50 tbc
[h264_nvenc @ 0x3e08120] The variable bitrate rate-control requires the 'qmin' and/or 'qmax' option set.
Output #0, matroska, to 'Output/NVENCh264/encoded/old_town_cross_2160p50llhp14000k.mkv':
  Metadata:
    encoder         : Lavf57.57.100
    Stream #0:0: Video: h264 (h264_nvenc) (Main) (H264 / 0x34363248), yuv420p, 3840x2160 [SAR 1:1 DAR 16:9], q=-1--1, 14000 kb/s, 50 fps, 1k tbn, 50 tbc
    Metadata:
      encoder         : Lavc57.66.101 h264_nvenc
    Side data:
      cpb: bitrate max/min/avg: 0/0/14000000 buffer size: 28000000 vbv_delay: -1
Stream mapping:
  Stream #0:0 -> #0:0 (rawvideo (native) -> h264 (h264_nvenc))
Press [q] to stop, [?] for help
frame=   14 fps=0.0 q=0.0 size=       0kB time=00:00:00.00 bitrate=N/A speed=   0x    frame=   28 fps= 19 q=0.0 size=       0kB time=00:00:00.00 bitrate=N/A speed=   0x    frame=   46 fps= 23 q=32.0 size=       1kB time=00:00:00.30 bitrate=  19.9kbits/s speed=0.153x    frame=   50 fps= 20 q=32.0 size=       1kB time=00:00:00.38 bitrate=  15.7kbits/s speed=0.153x    frame=   55 fps= 18 q=32.0 size=       1kB time=00:00:00.48 bitrate=  12.4kbits/s speed=0.161x    frame=   61 fps= 17 q=33.0 size=       1kB time=00:00:00.60 bitrate=  10.0kbits/s speed=0.171x    frame=   66 fps= 15 q=32.0 size=       1kB time=00:00:00.70 bitrate=   8.5kbits/s speed=0.16x    frame=   73 fps= 15 q=32.0 size=       1kB time=00:00:00.84 bitrate=   7.1kbits/s speed=0.17x    frame=   78 fps= 14 q=32.0 size=       1kB time=00:00:00.94 bitrate=   6.4kbits/s speed=0.17x    frame=   80 fps= 13 q=32.0 size=       1kB time=00:00:00.98 bitrate=   6.1kbits/s speed=0.156x    frame=   84 fps= 12 q=31.0 size=       1kB time=00:00:01.06 bitrate=   5.6kbits/s speed=0.155x    frame=   86 fps= 11 q=31.0 size=       1kB time=00:00:01.10 bitrate=   5.4kbits/s speed=0.145x    frame=   89 fps= 11 q=32.0 size=       1kB time=00:00:01.16 bitrate=   5.2kbits/s speed=0.143x    frame=   94 fps= 10 q=32.0 size=       1kB time=00:00:01.26 bitrate=   4.7kbits/s speed=0.139x    frame=   98 fps=9.8 q=33.0 size=       1kB time=00:00:01.34 bitrate=   4.5kbits/s speed=0.134x    frame=  100 fps=9.4 q=33.0 size=       1kB time=00:00:01.38 bitrate=   4.3kbits/s speed=0.13x    frame=  101 fps=9.0 q=32.0 size=       1kB time=00:00:01.40 bitrate=   4.3kbits/s speed=0.124x    frame=  103 fps=8.5 q=32.0 size=       1kB time=00:00:01.44 bitrate=   4.2kbits/s speed=0.12x    frame=  105 fps=8.2 q=32.0 size=       1kB time=00:00:01.48 bitrate=   4.0kbits/s speed=0.116x    frame=  110 fps=8.1 q=31.0 size=       1kB time=00:00:01.58 bitrate=   3.8kbits/s speed=0.116x    frame=  113 fps=7.7 q=32.0 size=       1kB time=00:00:01.64 bitrate=   3.6kbits/s speed=0.112x    frame=  117 fps=7.6 q=31.0 size=       1kB time=00:00:01.72 bitrate=   3.5kbits/s speed=0.111x    frame=  120 fps=7.4 q=32.0 size=       1kB time=00:00:01.78 bitrate=   3.4kbits/s speed=0.11x    frame=  123 fps=7.2 q=31.0 size=       1kB time=00:00:01.84 bitrate=   3.3kbits/s speed=0.108x    frame=  129 fps=7.3 q=32.0 size=       1kB time=00:00:01.96 bitrate=   3.1kbits/s speed=0.111x    frame=  138 fps=7.6 q=30.0 size=       1kB time=00:00:02.14 bitrate=   2.8kbits/s speed=0.117x    frame=  148 fps=7.8 q=31.0 size=       1kB time=00:00:02.34 bitrate=   2.6kbits/s speed=0.124x    frame=  152 fps=7.7 q=32.0 size=       1kB time=00:00:02.42 bitrate=   2.5kbits/s speed=0.123x    frame=  158 fps=7.8 q=32.0 size=       1kB time=00:00:02.54 bitrate=   2.4kbits/s speed=0.126x    frame=  162 fps=7.7 q=31.0 size=       1kB time=00:00:02.62 bitrate=   2.3kbits/s speed=0.124x    frame=  165 fps=7.6 q=32.0 size=       1kB time=00:00:02.68 bitrate=   2.2kbits/s speed=0.123x    frame=  167 fps=7.5 q=32.0 size=       1kB time=00:00:02.72 bitrate=   2.2kbits/s speed=0.122x    frame=  172 fps=7.5 q=33.0 size=       1kB time=00:00:02.82 bitrate=   2.1kbits/s speed=0.123x    frame=  173 fps=7.3 q=32.0 size=       1kB time=00:00:02.84 bitrate=   2.1kbits/s speed=0.12x    frame=  178 fps=7.3 q=32.0 size=       1kB time=00:00:02.94 bitrate=   2.0kbits/s speed=0.12x    frame=  180 fps=7.2 q=32.0 size=       1kB time=00:00:02.98 bitrate=   2.0kbits/s speed=0.118x    frame=  188 fps=7.3 q=31.0 size=    5128kB time=00:00:03.14 bitrate=13375.3kbits/s speed=0.122x    frame=  192 fps=7.2 q=33.0 size=    5128kB time=00:00:03.22 bitrate=13043.1kbits/s speed=0.121x    frame=  197 fps=7.3 q=32.0 size=    5128kB time=00:00:03.32 bitrate=12650.3kbits/s speed=0.122x    frame=  203 fps=7.2 q=33.0 size=    5128kB time=00:00:03.44 bitrate=12209.2kbits/s speed=0.123x    frame=  214 fps=7.5 q=31.0 size=    5128kB time=00:00:03.66 bitrate=11475.5kbits/s speed=0.128x    frame=  216 fps=7.4 q=32.0 size=    5128kB time=00:00:03.70 bitrate=11351.5kbits/s speed=0.126x    frame=  219 fps=7.3 q=32.0 size=    5128kB time=00:00:03.76 bitrate=11170.4kbits/s speed=0.126x    frame=  227 fps=7.4 q=32.0 size=    5128kB time=00:00:03.92 bitrate=10714.6kbits/s speed=0.128x    frame=  233 fps=7.4 q=32.0 size=    5128kB time=00:00:04.04 bitrate=10396.4kbits/s speed=0.129x    frame=  237 fps=7.4 q=32.0 size=    5128kB time=00:00:04.12 bitrate=10194.6kbits/s speed=0.128x    frame=  253 fps=7.8 q=31.0 size=    5128kB time=00:00:04.44 bitrate=9460.0kbits/s speed=0.136x    frame=  267 fps=8.0 q=33.0 size=    5128kB time=00:00:04.72 bitrate=8898.9kbits/s speed=0.142x    frame=  279 fps=8.3 q=32.0 size=    5128kB time=00:00:04.96 bitrate=8468.4kbits/s speed=0.147x    frame=  297 fps=8.7 q=32.0 size=    8413kB time=00:00:05.32 bitrate=12952.5kbits/s speed=0.155x    frame=  315 fps=9.1 q=33.0 size=    8413kB time=00:00:05.68 bitrate=12131.7kbits/s speed=0.163x    frame=  333 fps=9.4 q=33.0 size=    8413kB time=00:00:06.04 bitrate=11408.7kbits/s speed=0.171x    frame=  351 fps=9.8 q=30.0 size=    8413kB time=00:00:06.40 bitrate=10767.1kbits/s speed=0.179x    frame=  369 fps= 10 q=33.0 size=    8413kB time=00:00:06.76 bitrate=10193.8kbits/s speed=0.186x    frame=  378 fps= 10 q=33.0 size=    8413kB time=00:00:06.94 bitrate=9929.4kbits/s speed=0.188x    frame=  396 fps= 11 q=32.0 size=    8413kB time=00:00:07.30 bitrate=9439.8kbits/s speed=0.195x    frame=  414 fps= 11 q=33.0 size=    8413kB time=00:00:07.66 bitrate=8996.2kbits/s speed=0.202x    frame=  431 fps= 11 q=33.0 size=   13613kB time=00:00:08.00 bitrate=13937.5kbits/s speed=0.208x    frame=  446 fps= 11 q=33.0 size=   13613kB time=00:00:08.30 bitrate=13433.8kbits/s speed=0.213x    frame=  464 fps= 12 q=33.0 size=   13613kB time=00:00:08.66 bitrate=12875.4kbits/s speed=0.219x    frame=  470 fps= 12 q=33.0 size=   13613kB time=00:00:08.78 bitrate=12699.5kbits/s speed=0.219x    frame=  488 fps= 12 q=33.0 size=   13613kB time=00:00:09.14 bitrate=12199.3kbits/s speed=0.225x    frame=  500 fps= 12 q=32.0 Lsize=   16967kB time=00:00:09.98 bitrate=13926.0kbits/s speed=0.244x    
video:16962kB audio:0kB subtitle:0kB other streams:0kB global headers:0kB muxing overhead: 0.027836%
bench: utime=1.308s
bench: maxrss=1409192kB
